# xmcd
#
# Track frame offsets:
# 150
# 13982
# 28157
# 46265
# 57325
# 70090
# 84870
# 95805
# 106442
# 119447
# 130835
# 145087
# 158925
# 173297
# 185862
# 197062
# 210272
# 220965
# 233325
# 244355
# 256347
# 269012
# 284002
# 299887
# 310710
# 325315
# 340437
#
# Disc length: 4678 seconds
#
#
# Revision: 0
# Processed by: cddbd v1.4PL0 Copyright (c) Steve Scherf et al.
# Submitted via: FreeRIP 2.00 
#
DISCID=a512441b
DTITLE=Vernon Oxford - Keeper Of The Flame - Disc 5
DYEAR=1900
DGENRE=Country
TTITLE0=Daughter Of The Vine
TTITLE1=They'll Never Take Her Love From Me
TTITLE2=Angel Band
TTITLE3=Have You Loved Your Woman Today
TTITLE4=Lonesome Rainin' City
TTITLE5=Veil Of White Lace
TTITLE6=Sweeter Than The Flowers
TTITLE7=Busiest Memory In Town
TTITLE8=Wings Of A Dove
TTITLE9=This World Holds Nothin' Since You're Gone
TTITLE10=Family Bible
TTITLE11=Always True
TTITLE12=Where The Soul Of Man Never Dies
TTITLE13=Lord, I've Tried Everything But You
TTITLE14=A Better Way Of Life
TTITLE15=The Uncloudy Day
TTITLE16=His And Hers
TTITLE17=House Of Gold
TTITLE18=Baby Sister
TTITLE19=Sad Situation
TTITLE20=Dust On The Bible
TTITLE21=Early Morning Rain
TTITLE22=The Last Letter
TTITLE23=You're The Reason
TTITLE24=Are They Gonna Make Us Outlaws Again
TTITLE25=The Long Black Veil
TTITLE26=I Feel Chained
EXTD=
EXTT0=
EXTT1=
EXTT2=
EXTT3=
EXTT4=
EXTT5=
EXTT6=
EXTT7=
EXTT8=
EXTT9=
EXTT10=
EXTT11=
EXTT12=
EXTT13=
EXTT14=
EXTT15=
EXTT16=
EXTT17=
EXTT18=
EXTT19=
EXTT20=
EXTT21=
EXTT22=
EXTT23=
EXTT24=
EXTT25=
EXTT26=
PLAYORDER=
